# xmcd
#
# Track frame offsets: 
#        150
#        21813
#        41043
#        56662
#        75953
#        93314
#        97918
#        114217
#        128551
#        145207
#        164341
#        180949
#
# Disc length: 2681 seconds
#
# Revision: 0
# Processed by: cddbd v1.5.2PL0 Copyright (c) Steve Scherf et al.
# Submitted via: ExactAudioCopy v1.0b3
#
DISCID=860a770c
DTITLE=Josh Abbott Band - Small Town Family Dream
DYEAR=2012
DGENRE=Country
TTITLE0=Idalou
TTITLE1=I'll Sing About Mine
TTITLE2=Touch
TTITLE3=Josh Abbott Band  - She Will Be Free
TTITLE4=Hotty Toddy
TTITLE5=Ffa
TTITLE6=Flatland Farmer
TTITLE7=My Texas (feat. Pat Green)
TTITLE8=Dallas Love
TTITLE9=Hell's Gates On Fire
TTITLE10=Josh Abbott Band  - Rain Finally Coming Down
TTITLE11=Small Town Family Dream
EXTD=
EXTT0=
EXTT1=
EXTT2=
EXTT3=
EXTT4=
EXTT5=
EXTT6=
EXTT7=
EXTT8=
EXTT9=
EXTT10=
EXTT11=
PLAYORDER=
